<?xml version="1.0" encoding="UTF-8"?>
<svg width="64" height="64" viewBox="0 0 64 64" xmlns="http://www.w3.org/2000/svg">
  <!-- Ecocentric - Leaf icon -->
  <rect x="2" y="2" width="60" height="60" rx="8" ry="8" fill="#1a1a1a"/>
  <rect x="5" y="5" width="54" height="42" rx="5" ry="5" fill="#4caf50"/>
  <rect x="5" y="47" width="54" height="12" rx="0" ry="0" fill="#1a1a1a"/>
  <rect x="5" y="55" width="54" height="4" rx="0" ry="5" fill="#1a1a1a"/>

  <!-- Leaf icon -->
  <g fill="none" stroke="#ffffff" stroke-width="3" stroke-linecap="round" stroke-linejoin="round">
    <path d="M32 40 Q16 36 14 22 Q14 12 32 12 Q50 12 50 22 Q48 36 32 40" fill="#ffffff" fill-opacity="0.25"/>
    <path d="M32 40 L32 24"/>
    <path d="M32 24 Q24 28 20 24"/>
    <path d="M32 24 Q40 28 44 24"/>
  </g>

  <text x="32" y="56" font-family="system-ui, -apple-system, sans-serif" font-size="7" font-weight="600" fill="#f5f5f5" text-anchor="middle">ECO</text>
</svg>
