<?xml version="1.0" encoding="UTF-8"?>
<svg width="64" height="64" viewBox="0 0 64 64" xmlns="http://www.w3.org/2000/svg">
  <!-- Free Market - Dollar sign icon -->
  <rect x="2" y="2" width="60" height="60" rx="8" ry="8" fill="#1a1a1a"/>
  <rect x="5" y="5" width="54" height="42" rx="5" ry="5" fill="#00897b"/>
  <rect x="5" y="47" width="54" height="12" rx="0" ry="0" fill="#1a1a1a"/>
  <rect x="5" y="55" width="54" height="4" rx="0" ry="5" fill="#1a1a1a"/>

  <!-- Dollar sign icon -->
  <g fill="none" stroke="#ffffff" stroke-width="3" stroke-linecap="round" stroke-linejoin="round">
    <line x1="32" y1="12" x2="32" y2="42"/>
    <path d="M40 18c0-4-3.5-5-8-5s-8 1-8 5c0 8 16 4 16 12 0 4-3.5 5-8 5s-8-1-8-5"/>
  </g>

  <text x="32" y="56" font-family="system-ui, -apple-system, sans-serif" font-size="6" font-weight="600" fill="#f5f5f5" text-anchor="middle">MARKETS</text>
</svg>
