<?xml version="1.0" encoding="UTF-8"?>
<svg width="64" height="64" viewBox="0 0 64 64" xmlns="http://www.w3.org/2000/svg">
  <!-- Tech Enthusiast - Rocket icon -->
  <rect x="2" y="2" width="60" height="60" rx="8" ry="8" fill="#1a1a1a"/>
  <rect x="5" y="5" width="54" height="42" rx="5" ry="5" fill="#00acc1"/>
  <rect x="5" y="47" width="54" height="12" rx="0" ry="0" fill="#1a1a1a"/>
  <rect x="5" y="55" width="54" height="4" rx="0" ry="5" fill="#1a1a1a"/>

  <!-- Rocket icon -->
  <g fill="none" stroke="#ffffff" stroke-width="3" stroke-linecap="round" stroke-linejoin="round">
    <path d="M32 10 Q40 18 40 30 L36 36 L28 36 L24 30 Q24 18 32 10" fill="#ffffff" fill-opacity="0.25"/>
    <circle cx="32" cy="22" r="4"/>
    <path d="M24 30 L18 38 L24 34"/>
    <path d="M40 30 L46 38 L40 34"/>
    <path d="M28 36 Q32 44 36 36"/>
  </g>

  <text x="32" y="56" font-family="system-ui, -apple-system, sans-serif" font-size="7" font-weight="600" fill="#f5f5f5" text-anchor="middle">TECH</text>
</svg>
